Coordinates
version=1
nRows=7
nColumns=32
inDegrees=yes

Units are S.I. units (second, meters, Newtons, ...)
If the header above contains a line with 'inDegrees', this indicates whether rotational values are in degrees (yes) or radians (no).

endheader
time	pelvis_tilt	pelvis_list	pelvis_rotation	pelvis_tx	pelvis_ty	pelvis_tz	hip_flexion_r	hip_adduction_r	hip_rotation_r	knee_angle_r	knee_adduction_r	med_cond_adduction_r	lat_cond_adduction_r	patella_r_constrained_knee_angle	hip_flexion_l	hip_adduction_l	hip_rotation_l	knee_angle_l	knee_adduction_l	med_cond_adduction_l	lat_cond_adduction_l	patella_l_constrained_knee_angle	lumbar_extension	lumbar_bending	lumbar_rotation	ankle_angle_r	subtalar_angle_r	mtp_angle_r	ankle_angle_l	subtalar_angle_l	mtp_angle_l
      0.55000000	    -10.70150441	      2.65170188	      7.94430874	     -0.64645262	      0.83940951	      0.18713260	     37.63812572	     -6.10095407	     -5.41076612	     -6.77045715	      1.80008841	      0.00000000	      0.00000000	     -0.11816677	     -2.85449599	      4.78852931	      6.72080977	    -16.67203482	      1.92688986	      0.00000000	      0.00000000	     -0.29098190	     -7.01154075	     -3.90836828	     -6.19533589	     -1.40471022	     -3.51989413	      0.00000000	      9.38378137	     17.34035425	      0.00000000
      0.55500000	    -10.60602045	      2.50168298	      7.70476603	     -0.63881131	      0.83883196	      0.18771588	     37.80201340	     -5.59910289	     -4.87891499	     -7.75915283	      1.82443147	      0.00000000	      0.00000000	     -0.13542276	     -2.92280370	      4.50780687	      6.82126486	    -17.64444297	      2.11101770	      0.00000000	      0.00000000	     -0.30795362	     -6.98617587	     -3.60434888	     -6.07907974	     -1.95291305	     -3.10148774	      0.00000000	      8.94608240	     17.28032568	      0.00000000
      0.56000000	    -10.53230605	      2.32523862	      7.45859393	     -0.63119634	      0.83827510	      0.18831812	     37.97293541	     -5.05728482	     -4.30031980	     -8.67622564	      1.81060509	      0.00000000	      0.00000000	     -0.15142870	     -2.88941470	      4.19311423	      6.95789896	    -18.73544004	      2.35788285	     -0.00000000	     -0.00000000	     -0.32699512	     -6.91657214	     -3.26234091	     -5.91087461	     -2.76912729	     -2.67826802	      0.00000000	      8.30080297	     17.19847591	     -0.00000000
      0.56500000	    -10.45199218	      2.14187155	      7.18852042	     -0.62361734	      0.83776998	      0.18894944	     38.14917576	     -4.48836427	     -3.71826247	     -9.59378108	      1.75080037	     -0.00000000	     -0.00000000	     -0.16744307	     -2.78234665	      3.85995777	      7.05685962	    -19.93839175	      2.63918776	     -0.00000000	     -0.00000000	     -0.34799058	     -6.88245800	     -2.90652069	     -5.72615867	     -3.74567373	     -2.27438750	     -0.00000000	      7.49762435	     17.13014016	      0.00000000
      0.57000000	    -10.37353055	      1.92468347	      6.89042626	     -0.61609160	      0.83732259	      0.18963596	     38.32533252	     -3.85638163	     -3.09503242	    -10.47499442	      1.65222583	     -0.00000000	     -0.00000000	     -0.18282314	     -2.58244057	      3.47659986	      7.11033927	    -21.24898595	      2.95769918	      0.00000000	      0.00000000	     -0.37086477	     -6.82556527	     -2.49728334	     -5.41373080	     -4.90057172	     -2.07389497	     -0.00000000	      6.39438053	     17.05184362	      0.00000000
      0.57500000	    -10.32109266	      1.72576651	      6.55952876	     -0.60855869	      0.83690342	      0.19028732	     38.55772843	     -3.26035636	     -2.45263878	    -11.41613380	      1.57428818	     -0.00000000	     -0.00000000	     -0.19924912	     -2.31023465	      3.12571703	      7.20524984	    -22.61128964	      3.30649475	      0.00000000	      0.00000000	     -0.39464145	     -6.76984926	     -2.13105752	     -5.23696448	     -5.92588881	     -1.60007411	      0.00000000	      5.34973767	     16.98496460	     -0.00000000
      0.58000000	    -10.26793021	      1.57076946	      6.25600525	     -0.60113582	      0.83657095	      0.19091419	     38.76383780	     -2.72739433	     -1.63929453	    -12.33822596	      1.52587069	      0.00000000	      0.00000000	     -0.21534267	     -1.96173742	      2.82798240	      7.47289276	    -24.07142879	      3.73546460	     -0.00000000	     -0.00000000	     -0.42012569	     -6.76645973	     -1.80717952	     -5.11265680	     -6.67855172	     -1.07383588	     -0.00000000	      4.33628981	     16.82413404	     -0.00000000
